<svg id="Capa_1" enable-background="new 0 0 512 512" height="512" viewBox="0 0 512 512" width="512" xmlns="http://www.w3.org/2000/svg"><g><path d="m256 512c-57.429 0-111.42-22.364-152.028-62.972-40.608-40.608-62.972-94.599-62.972-152.028 0-76.039 40.379-140.062 84.014-197.921 3.575-4.74 9.611-6.925 15.394-5.573 5.783 1.354 10.223 5.991 11.322 11.826l.744 3.947c2.887 15.307 12.427 28.628 25.663 36.436 31.688-32.68 38.139-83.469 14.918-123.137-3.388-5.788-2.522-13.121 2.119-17.961 4.643-4.841 11.933-6.01 17.856-2.868l5.292 2.808c60.461 32.077 100.182 91.652 107.139 158.746 13.731-7.786 24.123-20.726 28.591-36.39l6.534-22.915c1.561-5.473 6.083-9.591 11.678-10.633 5.595-1.043 11.297 1.17 14.723 5.714 43.634 57.86 84.013 121.882 84.013 197.921 0 57.429-22.364 111.42-62.972 152.028s-94.599 62.972-152.028 62.972z" fill="#ff9f22"/><path d="m386.987 99.08c-3.426-4.544-9.128-6.757-14.723-5.714-5.595 1.042-10.117 5.16-11.678 10.633l-6.534 22.915c-4.468 15.664-14.859 28.604-28.591 36.39-5.384-51.925-30.404-99.334-69.461-132.991v481.687c57.429 0 111.42-22.364 152.028-62.972s62.972-94.599 62.972-152.028c0-76.039-40.379-140.061-84.013-197.92z" fill="#ff6426"/><path d="m158 364.5c-31.706 0-57.5-25.794-57.5-57.5s25.794-57.5 57.5-57.5c11.521 0 22.642 3.398 32.158 9.828 5.72 3.864 7.225 11.635 3.359 17.355-3.864 5.718-11.634 7.226-17.355 3.359-5.367-3.626-11.647-5.543-18.162-5.543-17.921 0-32.5 14.579-32.5 32.5s14.579 32.5 32.5 32.5c6.573 0 12.085-1.941 16.383-5.77.84-.748 1.645-1.578 2.392-2.469 4.436-5.288 12.321-5.979 17.61-1.54 5.288 4.438 5.978 12.322 1.54 17.61-1.521 1.813-3.175 3.518-4.914 5.067-8.888 7.919-20.303 12.103-33.011 12.103z" fill="#39326c"/><path d="m357.032 397.018c-11.74 0-12.687-.315-14.013-.756-3.191-1.064-5.675-3.588-6.648-6.754-1.642-5.336.908-8.675 4.769-13.729 2.974-3.894 8.509-11.141 17.79-24.402 2.917-4.168 4.117-7.082 4.604-8.886l.115-.9c-.237-2.57-2.406-4.59-5.037-4.59-2.413 0-4.5 1.711-4.963 4.067-1.064 5.419-6.316 8.948-11.74 7.885-5.419-1.064-8.949-6.321-7.885-11.74 2.3-11.713 12.641-20.213 24.588-20.213 13.817 0 25.059 11.241 25.059 25.059-.036 1.319-.304 3.239-.55 4.536-1.174 5.061-3.8 10.527-7.806 16.25-4.011 5.731-7.344 10.372-10.087 14.124 3.53-.023 7.244-.059 10.811-.104.043-.001.086-.001.129-.001 5.464 0 9.928 4.395 9.996 9.874.069 5.522-4.352 10.056-9.873 10.125-8.49.107-14.692.155-19.259.155z" fill="#001737"/><path d="m267 364.5c-31.706 0-57.5-25.794-57.5-57.5s25.794-57.5 57.5-57.5 57.5 25.794 57.5 57.5-25.794 57.5-57.5 57.5zm0-90c-17.921 0-32.5 14.579-32.5 32.5s14.579 32.5 32.5 32.5 32.5-14.579 32.5-32.5-14.579-32.5-32.5-32.5z" fill="#39326c"/><path d="m267 249.5c-3.762 0-7.438.375-11 1.068v25.852c3.437-1.24 7.14-1.92 11-1.92 17.921 0 32.5 14.579 32.5 32.5s-14.579 32.5-32.5 32.5c-3.86 0-7.563-.68-11-1.92v25.852c3.562.693 7.238 1.068 11 1.068 31.706 0 57.5-25.794 57.5-57.5s-25.794-57.5-57.5-57.5z" fill="#001737"/></g></svg>