<svg id="Capa_1" enable-background="new 0 0 512 512" height="512" viewBox="0 0 512 512" width="512" xmlns="http://www.w3.org/2000/svg"><g><g><g><path d="m503.034 396.592c-1.94-1.85-4.335-2.788-7.118-2.788-5.035 0-11.186 3.043-18.801 9.301-14.147 11.627-26.127 20.376-37.704 27.535-13.933 8.63-27.066 14.644-40.149 18.388l-6.795 1.944 6.806 1.905c15.074 4.219 30.528 7.374 45.933 9.378 5.146.667 11.246 1.35 17.487 1.35 4.523 0 8.594-.353 12.445-1.079 10.723-2.036 19.514-7.174 24.753-14.469 7.539-10.509 7.511-24.584 6.782-39.297-.242-4.813-.702-9.366-3.639-12.168z" fill="#f0f1fa"/><path d="m113.655 429.456c-.598-2.07-1.175-4.149-1.744-6.249-1.061-3.834-2.263-8.18-3.597-12.338-.572-1.753-1.094-2.934-1.594-3.609l-.807-1.089-1.311.345c-.779.206-1.789.698-2.992 1.46-19.544 12.247-40.034 22.178-60.903 29.519-9.05 3.182-18.328 5.952-27.577 8.235l-5.326 1.315 4.923 2.422c30.249 14.881 64.057 22.746 97.766 22.746 3.062 0 6.164-.064 9.22-.192 2.327-.094 3.709-.471 4.439-1.218l.19-.181.149-.277c.442-.814.378-1.873-.246-4.046z" fill="#f0f1fa"/><path d="m409.752 404.55c-3.34 5.15-7.09 9.93-11.22 14.27-15.18 15.9-36.351 27.341-61.232 33.091-13.37 3.09-27.561 4.59-43.371 4.59-8.54 0-17.44-.42-27.241-1.3-31.701-2.84-57.411-9.39-78.602-20.021-26.231-13.16-46.101-33.191-55.932-56.391-9.06-21.371-9.87-46.931-2.36-73.912 2.51-9.01 5.92-18.111 10.14-27.041 5.17-10.97 11.53-21.321 18.891-30.751l.84-1.08c1.48-1.93 2.24-2.84 2.98-3.29l.79-.48.88.29c.59.2 1.29.64 2.07 1.31 1.72 1.46 2.87 3.86 3.99 6.18.39.83.84 1.77 1.32 2.63 0 0 11.19 20.301 11.36 20.621 1.26 2.29 2.59 4.58 3.87 6.8 2.95 5.12 6.01 10.42 8.49 15.95.5 1.09.98 2.34 1.5 3.67 2.1 5.39 4.72 12.11 9.47 13.06.23.04.45.07.68.07 4.16 0 7.71-8.07 9.62-12.41.37-.84.7-1.59.99-2.19.89-1.9 1.57-3.3 1.97-3.96l33.481-54.182c.76-1.22 1.43-2.05 2.06-2.52l1.35-1.03.38.36.86.81c.44.42.93 1.12 1.54 2.2l38.941 69.392c4.86 8.66 6.55 11.68 7.14 12.88l.06-.03c.27.48.78.77 1.32.77.26 0 .51-.06.74-.19.57-.32.88-.98.75-1.62l-.08-.38.07-.38c.26-1.36 1.39-4.2 3.57-8.95.67-1.46 1.04-2.3 1.22-2.79l4.85-13.32c.99-2.69 1.91-5.7 2.73-8.35 1.21-3.91 2.57-8.35 4.26-12.32l1.63-3.84 1.93 3.6 24.011 38.011c.86 1.36 1.85 2.04 2.96 2.04.1 0 .18 0 .26-.01 2.13-.22 3.25-2.74 4.31-5.54l.09-.25c.06-.16.11-.3.16-.42.84-2.05 1.49-4.18 2.12-6.24l.09-.29c.59-1.97 1.27-4.21 2.12-6.3 2.61-6.38 5.43-12.82 8.38-19.151.58-1.23 1.15-2.49 1.73-3.75 4.65-10.09 9.42-20.461 17.25-27.961 1.04-1.01 2.07-1.93 3.24-2.24.15-.04.37-.07.6-.07 1.77 0 2.97 1.7 4.83 5.28l.13.25c.37.71.73 1.38 1.08 1.95 6.46 10.12 10.96 21.121 15.37 32.431 6.25 15.97 9.951 31.951 11 47.501 1.874 27.231-4.886 54.072-18.426 74.943z" fill="#fff"/><path d="m376.005 130.554c-.122-.556.071-1.124.505-1.485l42.135-35.08-78.982 12.507 1.998 2.658c8.319 11.061 15.244 25.21 21.168 43.249.814 2.496 1.659 5.236 2.583 8.375l.578 1.963 58.049-18.565-46.941-12.486c-.554-.148-.973-.583-1.093-1.136z" fill="#ffbf48"/><path d="m373.48 264.696c2.82-37.321-1.87-75.822-13.53-111.333-7.98-24.341-17.65-41.281-30.431-53.301-11.45-10.77-26.591-17.87-42.791-20.281-4.07-.61-8.2-.92-12.36-.92-7.22 0-14.31.93-21.101 2.78-3.84 1.05-7.62 2.4-11.22 4.03-28.401 12.851-47.981 43.711-47.621 75.052.11 10.44 2.24 20.891 4.29 30.991l.37 1.86c.24 1.18.48 2.35.71 3.53 2.22 11.27 4.42 24.381 2.54 37.341-1.96 13.48-8.471 24.921-17.861 31.381l-1.5 1.03 2.75 4.96c1.4 2.55 2.98 4.9 4.5 7.18 2.3 3.44 4.48 6.68 6.05 10.47.55 1.31 1.07 2.64 1.59 3.98 1.99 5.1 4.05 10.37 7.62 14.861l1.54 1.94 1.57-1.91c1.83-2.22 4.22-6.99 6.35-11.43.82-1.74 1.6-3.38 2.13-4.25l33.491-54.191c.74-1.21 2.72-4.43 5.83-4.43.17 0 .34.01.53.03 2.74.3 4.28 3.01 5.04 4.35l44.071 78.572 1.61-3.68c.43-.97.89-2.02 1.42-3.17l.06-.13c.58-1.27.94-2.06 1.08-2.46l4.85-13.31c.93-2.55 1.77-5.26 2.68-8.2 1.94-6.3 3.94-12.8 7.16-18.191.23-.37.59-.63 1-.71.1-.02.2-.03.3-.03.33 0 .64.11.91.31 1.4 1.05 2.31 2.61 3.18 4.11l.12.22c.2.34.39.68.6 1.01l22.501 35.621 2.15 3.25 1.44-3.68c.03-.08.33-.89.33-.89.86-2.09 1.53-4.31 2.15-6.36.65-2.14 1.32-4.35 2.19-6.47 2.66-6.51 5.5-12.99 8.43-19.281.38-.82.77-1.64 1.15-2.47l.51-1.1.08-.18c.59-1.29 1.19-2.58 1.79-3.88l.42-.91-.48-.89c-.138-.261-.207-.531-.188-.821zm-79.552-135.904c1.48 2.41 1.47 5.28-.05 8.28-1.6 3.19-5.31 5.41-9.03 5.41-.91 0-1.79-.13-2.62-.39-4.31-1.34-7.31-6.34-6.43-10.7 1.35-6.71 6.58-7.43 8.77-7.43 3.82 0 7.58 1.94 9.36 4.83z" fill="#ffe07a"/><path d="m225.708 45.15c-8.551-3.515-18.098-5.374-27.609-5.374-7.791 0-15.388 1.203-22.58 3.574-5.647 1.861-12.773 5.415-14.662 11.779-1.879 6.305 2.301 13.172 7.401 16.697 5.725 3.955 13.085 5.334 19.579 6.55.805.152 1.342.898 1.22 1.708-.107.739-.746 1.296-1.487 1.296-.053 0-.106-.003-.165-.009-1.344-.141-2.72-.212-4.088-.212-11.309 0-22.64 4.836-30.312 12.936-2.136 2.252-5.51 6.649-4.115 10.791 1.125 3.362 4.978 5.219 8.206 6.461 7.128 2.751 14.599 4.546 22.211 5.334.638.064 1.165.532 1.312 1.162.146.63-.128 1.286-.676 1.629-4.93 3.061-10.028 6.226-13.715 10.754-3.06 3.744-5.706 9.743-3.96 15.352 1.395 4.473 5.588 8.269 10.945 9.907 2.408.737 5.022 1.095 7.992 1.095 2.404 0 5.025-.233 8.01-.712.072-.011.142-.017.268-.017.02 0 1.994.083 1.994.083l.146-1.929c2.298-30.256 22.058-58.825 49.169-71.091 5.599-2.526 11.583-4.41 17.785-5.598l2.849-.546-1.522-2.468c-8.045-13.044-20.188-23.396-34.196-29.152z" fill="#e68781"/><path d="m368.215 129.023c-7.871-7.321-13.95-17.061-23.725-21.534 6.83 18.198 13.661 36.395 20.491 54.593.228.607 26.043-6.791 28.416-7.447 3.294-.911 23.844-4.169 19.615-9.639-1.532-1.982-8.076-.803-10.39-.999-4.185-.354-8.328-1.157-12.344-2.386-8.162-2.499-15.802-6.764-22.063-12.588z" fill="#ef9737"/><path d="m371.861 271.376-.51 1.1c-.38.83-.77 1.65-1.15 2.47-2.93 6.29-5.77 12.77-8.43 19.281-.87 2.12-1.54 4.33-2.19 6.47-.62 2.05-1.29 4.27-2.15 6.36 0 0-.3.81-.33.89l-1.44 3.68-2.15-3.25-22.501-35.621c-.21-.33-.4-.67-.6-1.01l-.12-.22c-.87-1.5-1.78-3.06-3.18-4.11-.27-.2-.58-.31-.91-.31-.1 0-.2.01-.3.03-.41.08-.77.34-1 .71-3.22 5.39-5.22 11.89-7.16 18.191-.91 2.94-1.75 5.65-2.68 8.2l-4.85 13.31c-.14.4-.5 1.19-1.08 2.46l-.06.13c-.53 1.15-.99 2.2-1.42 3.17l-1.61 3.68-44.071-78.572c-.76-1.34-2.3-4.05-5.04-4.35-.19-.02-.36-.03-.53-.03-3.11 0-5.09 3.22-5.83 4.43l-33.491 54.191c-.53.87-1.31 2.51-2.13 4.25-2.13 4.44-4.52 9.21-6.35 11.43l-1.57 1.91-1.54-1.94c-3.57-4.49-5.63-9.76-7.62-14.861-.52-1.34-1.04-2.67-1.59-3.98-1.57-3.79-3.75-7.03-6.05-10.47-1.52-2.28-3.1-4.63-4.5-7.18l-2.75-4.96 1.5-1.03c9.39-6.46 15.9-17.901 17.861-31.381 1.88-12.96-.32-26.071-2.54-37.341-.23-1.18-.47-2.35-.71-3.53l-.37-1.86c-2.05-10.1-4.18-20.551-4.29-30.991-.36-31.341 19.221-62.202 47.621-75.052 3.6-1.63 7.38-2.98 11.22-4.03 6.79-1.85 13.881-2.78 21.101-2.78 4.16 0 8.29.31 12.36.92-8.37 10.65-16.201 21.761-21.531 34.171-6.49 15.08-9.01 32.471-3.67 47.991 3.6 10.45 10.54 19.491 18.521 27.151 13.69 13.14 30.451 22.55 47.051 31.751 13.64 7.55 27.841 15.54 36.481 28.521 4.417 6.631 7.057 14.161 8.278 22.011z" fill="#f7c05e"/><path d="m202.906 50.225c-2.996.458-6.339 1.417-7.704 4.123-1.023 2.027-.591 4.55.568 6.503s2.947 3.441 4.744 4.829c3.848 2.972 7.902 5.676 12.125 8.087-6.613 2.318-12.799 5.848-18.158 10.363-2.853 2.404-5.593 5.296-6.38 8.944-.795 3.688.722 7.774 3.731 10.049 1.114.842 2.414 1.459 3.352 2.493s1.402 2.712.541 3.812c-.378.484-.945.774-1.484 1.068-7.833 4.274-13.269 12.653-13.979 21.548-.711 8.894 3.326 18.031 10.381 23.494-.255-1.617.014-3.268.331-4.875 3.46-17.517 12.804-33.598 25.245-46.406 5.868-6.041 12.424-11.395 19.411-16.09 6.974-4.686 14.79-7.737 21.843-12.15 4.186-2.62 1.755-5.084-.971-7.831-2.643-2.662-5.536-5.073-8.618-7.21-6.118-4.24-12.983-7.398-20.176-9.308-8.06-2.138-16.551-2.705-24.802-1.443z" fill="#d36c63"/><g fill="#f0f1fa"><path d="m409.752 404.55c-3.34 5.15-7.09 9.93-11.22 14.27-15.18 15.9-36.351 27.341-61.232 33.091-13.37 3.09-27.561 4.59-43.371 4.59-8.54 0-17.44-.42-27.241-1.3-31.701-2.84-57.411-9.39-78.602-20.021-26.231-13.16-46.101-33.191-55.932-56.391-9.06-21.371-9.87-46.931-2.36-73.912 2.51-9.01 5.92-18.111 10.14-27.041 5.17-10.97 11.53-21.321 18.891-30.751l.84-1.08c1.48-1.93 2.24-2.84 2.98-3.29l.79-.48.88.29c.59.2 1.29.64 2.07 1.31 1.72 1.46 2.87 3.86 3.99 6.18.39.83.84 1.77 1.32 2.63 0 0 11.19 20.301 11.36 20.621 1.26 2.29 2.59 4.58 3.87 6.8 2.95 5.12 6.01 10.42 8.49 15.95.5 1.09.98 2.34 1.5 3.67 2.1 5.39 4.72 12.11 9.47 13.06.23.04.45.07.68.07 4.16 0 7.71-8.07 9.62-12.41.37-.84.7-1.59.99-2.19.89-1.9 1.57-3.3 1.97-3.96l33.481-54.182c.76-1.22 1.43-2.05 2.06-2.52l1.35-1.03.38.36c-4.91 22.511-7.3 45.581-7.05 68.622.24 22.781 3.3 46.341 15.211 65.772 20.4 33.261 63.232 47.271 102.103 43.881 14.561-1.269 29.101-4.819 42.572-10.609z"/><path d="m307.625 316.804c-.51 1.204-1.027 2.43-1.159 3.731-.153 1.507.22 3.013.597 4.48 4.115 16.044 8.971 31.899 14.548 47.495 1.907-1.394 2.352-4.009 2.632-6.354 2.915-24.358 4.497-48.875 4.738-73.405.057-5.857.449-12.765-1.909-18.239-4.482 1.138-7.91 15.091-9.736 19.394-3.237 7.633-6.474 15.266-9.711 22.898z"/><path d="m362.658 292.722c-1.189 2.59-2.328 5.247-2.732 8.068-.438 3.056.006 6.163.491 9.212 2.366 14.869 5.736 29.577 10.078 43.994-.914-3.043 2.689-11.1 3.457-14.292 1.19-4.949 2.373-9.9 3.548-14.852 2.438-10.271 4.847-20.55 7.225-30.836 1.86-8.047 6.596-18.909 4.84-27.159-1.834-8.617-6.426-8.397-10.897-2.019-6.16 8.789-11.53 18.131-16.01 27.884z"/></g><path d="m44.048 450.309c24.854 14.211 53.675 21.398 82.291 20.519-5.206-9.602-8.098-20.257-10.947-30.802-1.065-3.944-4.84-27.371-8.342-28.308-2.997-.802-14.467 13.678-17.345 15.949-6.794 5.361-14.323 9.745-22.128 13.458-3.815 1.815-7.708 3.464-11.648 4.99-1.876.726-10.254 5.008-11.881 4.194z" fill="#dcdeea"/><path d="m402.693 446.061c27.333-5.322 51.695-20.247 75.269-35.069 4.076 13.262 14.325 24.484 27.164 29.743-13.227 14.924-33.792 21.867-53.733 22.094s-39.467-5.584-58.077-12.75c8.628-2.154 17.187-4.59 25.656-7.303" fill="#dcdeea"/></g></g><g><path d="m402.155 422.287c22.18-23.253 33.496-57.157 31.045-93.017-1.099-16.072-4.913-32.553-11.337-48.985-4.526-11.572-9.65-22.534-15.628-33.399-2.537-4.612-6.291-11.12-12.408-9.452-2.278.622-3.9 2.045-5.365 3.449-3.678 3.524-6.696 7.548-9.327 11.824.554-17.386-.46-34.822-2.974-52.034-1.234-8.447-2.829-16.842-4.79-25.15-1.151-4.877-2.886-6.576 1.516-9.322 5.338-3.329 12.236-4.315 18.194-6.221 5.99-1.915 11.979-3.832 17.968-5.748 7.151-2.288 14.303-4.576 21.454-6.864 1.48-.474 2.472-1.867 2.433-3.421s-1.098-2.896-2.6-3.296l-45.406-12.072 41.153-34.267c1.211-1.008 1.599-2.7.948-4.135-.65-1.436-2.189-2.253-3.735-2.012l-83.555 13.24c-.519.082-.987.282-1.397.557-1.736-1.948-3.525-3.805-5.385-5.554-17.758-16.705-43.015-24.539-67.243-22.125-8.447-15.016-22.185-27.239-38.106-33.781-16.827-6.916-36.389-7.614-53.666-1.918-9.723 3.206-15.911 8.429-17.897 15.107-2.678 9.004 2.978 17.851 9.367 22.26 1.29.89 2.63 1.663 4.004 2.34-7.594 2.364-14.617 6.605-20.057 12.347-5.019 5.299-6.877 10.922-5.232 15.835 1.81 5.402 7.238 8.038 11.163 9.55 4.672 1.8 9.483 3.213 14.378 4.226-2.644 1.956-5.185 4.17-7.333 6.8-5.029 6.157-6.847 13.64-4.863 20.018 1.877 6.026 7.346 11.087 14.272 13.207 3.207.982 6.48 1.317 9.529 1.317 3.027 0 5.828-.33 8.135-.685.139 10.824 2.296 21.48 4.385 31.788.363 1.792.727 3.582 1.078 5.373 2.139 10.863 4.271 23.472 2.499 35.659-1.732 11.909-7.227 21.85-15.175 27.589-2.039-3.698-4.078-7.395-6.114-11.094-.392-.712-.78-1.519-1.191-2.374-1.285-2.671-2.742-5.699-5.272-7.846-2.917-2.475-6.309-3.383-9.808-1.28-2.44 1.466-4.163 3.856-5.725 6.237-6.634 10.114-13.478 19.673-18.691 30.733-4.342 9.209-7.853 18.578-10.436 27.848-7.822 28.068-6.93 54.768 2.577 77.213 10.291 24.297 30.997 45.22 58.301 58.916 21.773 10.921 48.075 17.637 80.408 20.53 9.612.86 18.714 1.292 27.368 1.292 16.444 0 31.258-1.558 44.821-4.691 25.846-5.971 47.881-17.905 63.72-34.512zm9.675-325.216-36.585 30.462c-1.006.837-1.461 2.166-1.179 3.444s1.254 2.292 2.519 2.628l40.394 10.739-49.653 15.885c-.832-2.829-1.692-5.647-2.609-8.442-6.004-18.289-12.981-32.563-21.484-43.848zm-222.191 56.796c-.244-.013-.492-.003-.744.038-6.286 1.011-11.084.909-15.101-.322-4.745-1.453-8.438-4.746-9.637-8.595-1.512-4.858.868-10.164 3.601-13.508 3.47-4.248 8.432-7.339 13.231-10.328 1.27-.791 1.897-2.301 1.56-3.758-.336-1.458-1.562-2.54-3.049-2.694-7.426-.77-14.725-2.521-21.692-5.206-2.605-1.004-6.171-2.64-7.041-5.24-1.099-3.28 2.205-7.246 3.676-8.799 8.26-8.718 20.82-13.354 32.755-12.113 1.876.206 3.557-1.118 3.827-2.976.271-1.858-.973-3.599-2.818-3.945-6.303-1.183-13.447-2.523-18.816-6.229-4.514-3.115-8.241-9.097-6.634-14.504 1.647-5.537 8.185-8.741 13.379-10.453 15.716-5.181 33.506-4.546 48.814 1.745 13.642 5.606 25.518 15.801 33.273 28.382-6.264 1.193-12.398 3.093-18.247 5.739-28.059 12.69-48.005 41.948-50.337 72.766zm14.661 80.868c1.93-13.28-.309-26.587-2.558-38.018-.355-1.804-.721-3.607-1.087-5.412-2.033-10.029-4.135-20.4-4.25-30.607-.345-30.583 18.758-60.693 46.454-73.221 6.319-2.858 13.001-4.768 19.814-5.785.913.376 1.973.379 2.919-.106.182-.093.345-.206.503-.325 22.345-2.338 45.687 4.839 62.065 20.247 12.519 11.777 22.021 28.448 29.905 52.463 11.586 35.295 16.236 73.529 13.445 110.571-.053.699.109 1.363.422 1.936-.605 1.296-1.201 2.592-1.795 3.883-.578 1.257-1.152 2.505-1.729 3.739-2.969 6.358-5.82 12.873-8.475 19.366-.919 2.248-1.611 4.532-2.281 6.74-.648 2.14-1.262 4.161-2.054 6.105-.089.217-.19.486-.305.789-.025.068-.055.148-.089.237l-22.511-35.649c-.232-.367-.457-.758-.687-1.154-.93-1.603-1.982-3.421-3.705-4.712-.793-.594-1.803-.825-2.773-.633-.973.191-1.818.786-2.327 1.635-3.318 5.536-5.373 12.19-7.361 18.625-.887 2.869-1.724 5.579-2.645 8.109l-4.854 13.32c-.129.354-.611 1.414-1.079 2.438-.534 1.174-1.014 2.242-1.44 3.219l-42.132-75.095c-.828-1.478-2.768-4.938-6.558-5.35-4.66-.505-7.374 3.897-8.269 5.345l-33.473 54.179c-.575.932-1.314 2.48-2.249 4.441-1.686 3.533-3.276 7.565-5.847 10.52-4.637-3.064-7.116-12.287-9.349-17.346-3.445-7.804-8.293-14.385-12.356-21.757 9.86-6.776 16.656-18.614 18.711-32.737zm132.558 215.243c-20.244 4.677-42.483 5.71-69.989 3.248-31.44-2.814-56.92-9.296-77.892-19.816-25.82-12.952-45.351-32.622-54.995-55.389-8.883-20.971-9.671-46.077-2.28-72.603 2.479-8.891 5.852-17.888 10.026-26.741 5.109-10.84 11.39-21.059 18.667-30.375.289-.37.567-.734.837-1.088.759-.994 1.886-2.468 2.448-2.806.175.062.628.268 1.413.934 1.393 1.182 2.459 3.398 3.49 5.541 5.681 11.807 12.304 23.121 18.736 34.526 3.302 5.854 6.568 11.731 9.632 17.714 1.985 3.875 4.705 12.116 10.419 11.599 4.49-.395 7.702-6.454 12.09-15.653.777-1.628 1.511-3.167 1.887-3.775l33.473-54.179c.813-1.315 1.332-1.808 1.576-1.987.203.188.576.642 1.189 1.736 0 0 46.142 82.243 46.143 82.244 2.624 4.669 6.136-.238 7.17-3.101 5.321-14.748 9.704-30.283 15.834-44.648.015.023.028.045.043.068 0 0 24.006 38.017 24.006 38.017 2.67 4.227 6.578 3.543 9.308-.339 1.401-1.993 2.154-4.355 2.919-6.668 3.679-11.133 8.061-22.034 13.109-32.617 4.627-9.7 9.31-20.338 17.189-27.883.815-.781 1.669-1.56 2.362-1.749.863-.237 2.488 2.884 3.182 4.216.434.834.844 1.621 1.289 2.319 6.327 9.93 10.803 20.856 15.204 32.111 6.165 15.768 9.823 31.551 10.872 46.913 2.284 33.406-8.604 66.194-29.125 87.708-14.894 15.615-35.721 26.861-60.232 32.523z"/><path d="m118.469 428.079c-.592-2.058-1.162-4.127-1.732-6.197-1.137-4.121-2.313-8.383-3.656-12.541-1.056-3.266-2.457-6.443-5.543-7.567-3.073-1.119-6.206.456-8.594 1.953-19.226 12.053-39.382 21.825-59.905 29.045-11.85 4.169-24.051 7.599-36.266 10.196-1.433.304-2.523 1.468-2.735 2.916-.212 1.449.5 2.876 1.784 3.579 33.378 18.245 70.771 27.773 108.71 27.773 3.125 0 6.26-.065 9.391-.195 1.83-.076 6.692-.278 8.904-4.177 1.674-2.949.738-6.202.235-7.95zm4.27 41.329c-.003.005-.328.523-3.108.638-36.71 1.523-73.184-6.196-106.068-22.375 9.371-2.312 18.687-5.091 27.798-8.296 21.012-7.392 41.637-17.39 61.301-29.718 1.373-.861 2.118-1.135 2.454-1.223.226.313.673 1.108 1.304 3.059 1.297 4.014 2.451 8.201 3.569 12.25.577 2.094 1.154 4.188 1.754 6.27l10.593 36.834c.542 1.891.485 2.416.403 2.561z"/><path d="m511.684 408.517c-.279-5.633-.908-11.472-5.181-15.546-7.659-7.306-18.617-5.198-32.563 6.26-13.965 11.477-25.774 20.105-37.164 27.152-17.917 11.086-34.679 17.837-51.246 20.639-1.588.269-2.788 1.587-2.906 3.194s.875 3.087 2.407 3.586c19.335 6.292 39.363 10.811 59.53 13.432 5.849.76 11.941 1.394 18.114 1.394 4.443 0 8.927-.328 13.392-1.173 12.001-2.271 21.911-8.119 27.901-16.468 8.481-11.817 8.489-26.832 7.716-42.47zm-13.402 38.389c-4.938 6.882-13.289 11.737-23.514 13.671-9.702 1.836-19.818.949-29.303-.284-15.401-2.002-30.719-5.134-45.697-9.34 13.219-3.774 26.642-9.923 40.693-18.617 11.661-7.215 23.713-16.016 37.925-27.697 10.769-8.846 18.605-11.07 23.288-6.602 2.407 2.296 2.802 6.43 3.019 10.825.709 14.352.753 28.061-6.411 38.044z"/><path d="m281.631 144.003c5.287 1.651 11.546-1.086 14.038-6.032 7.55-14.983-18.499-23.567-21.836-6.976-1.091 5.43 2.511 11.357 7.798 13.008z"/></g></g></svg>